<?xml version="1.0" encoding="UTF-8" standalone="no"?>
<!-- Created with Inkscape (http://www.inkscape.org/) -->

<svg
   xmlns:dc="http://purl.org/dc/elements/1.1/"
   xmlns:cc="http://creativecommons.org/ns#"
   xmlns:rdf="http://www.w3.org/1999/02/22-rdf-syntax-ns#"
   xmlns:svg="http://www.w3.org/2000/svg"
   xmlns="http://www.w3.org/2000/svg"
   xmlns:sodipodi="http://sodipodi.sourceforge.net/DTD/sodipodi-0.dtd"
   xmlns:inkscape="http://www.inkscape.org/namespaces/inkscape"
   version="1.1"
   id="svg2"
   xml:space="preserve"
   width="415.74805"
   height="332.59842"
   viewBox="0 0 415.74805 332.59842"
   sodipodi:docname="crm_logo.svg"
   inkscape:version="0.92.1 r"><metadata
     id="metadata8"><rdf:RDF><cc:Work
         rdf:about=""><dc:format>image/svg+xml</dc:format><dc:type
           rdf:resource="http://purl.org/dc/dcmitype/StillImage" /><dc:title></dc:title></cc:Work></rdf:RDF></metadata><defs
     id="defs6" /><sodipodi:namedview
     pagecolor="#ffffff"
     bordercolor="#666666"
     borderopacity="1"
     objecttolerance="10"
     gridtolerance="10"
     guidetolerance="10"
     inkscape:pageopacity="0"
     inkscape:pageshadow="2"
     inkscape:window-width="640"
     inkscape:window-height="480"
     id="namedview4"
     showgrid="false"
     inkscape:zoom="1.4711973"
     inkscape:cx="228.18557"
     inkscape:cy="190.13562"
     inkscape:current-layer="g10" /><g
     id="g10"
     inkscape:groupmode="layer"
     inkscape:label="uab_logo_simple"
     transform="matrix(1.3333333,0,0,-1.3333333,0,332.59843)"><g
       id="g4151"
       transform="matrix(0.54009325,0,0,0.54009325,107.63168,43.73401)"><g
         id="g4269"
         transform="matrix(2.8346458,0,0,-2.8346458,-200.04866,505.4879)"><rect
           style="color:#000000;clip-rule:nonzero;display:inline;overflow:visible;visibility:visible;opacity:1;isolation:auto;mix-blend-mode:normal;color-interpolation:sRGB;color-interpolation-filters:linearRGB;solid-color:#000000;solid-opacity:1;vector-effect:none;fill:none;fill-opacity:1;fill-rule:nonzero;stroke:#d1d1d3;stroke-width:0.95249999;stroke-linecap:round;stroke-linejoin:miter;stroke-miterlimit:4;stroke-dasharray:none;stroke-dashoffset:0;stroke-opacity:1;marker:none;color-rendering:auto;image-rendering:auto;shape-rendering:auto;text-rendering:auto;enable-background:accumulate"
           id="rect4086"
           width="42.598"
           height="42.598"
           x="22.839685"
           y="96.795929" /><path
           style="fill:none;fill-rule:evenodd;stroke:#d1d1d3;stroke-width:0.95249999;stroke-linecap:butt;stroke-linejoin:miter;stroke-miterlimit:4;stroke-dasharray:none;stroke-opacity:1"
           d="M 44.138683,96.584326 V 139.47316"
           id="path4088"
           inkscape:connector-curvature="0"
           sodipodi:nodetypes="cc" /><path
           sodipodi:nodetypes="cc"
           inkscape:connector-curvature="0"
           id="path4090"
           d="M 33.489185,96.584326 V 139.47316"
           style="fill:none;fill-rule:evenodd;stroke:#d1d1d3;stroke-width:0.95249999;stroke-linecap:butt;stroke-linejoin:miter;stroke-miterlimit:4;stroke-dasharray:3.8099999, 3.8099999;stroke-dashoffset:0;stroke-opacity:1" /><path
           sodipodi:nodetypes="cc"
           inkscape:connector-curvature="0"
           id="path4098"
           d="M 65.58306,118.09493 H 22.694226"
           style="fill:none;fill-rule:evenodd;stroke:#d1d1d3;stroke-width:0.95249999;stroke-linecap:butt;stroke-linejoin:miter;stroke-miterlimit:4;stroke-dasharray:none;stroke-opacity:1" /><path
           style="fill:none;fill-rule:evenodd;stroke:#d1d1d3;stroke-width:0.95249999;stroke-linecap:butt;stroke-linejoin:miter;stroke-miterlimit:4;stroke-dasharray:3.8099999, 3.8099999;stroke-dashoffset:0;stroke-opacity:1"
           d="M 65.58306,107.44542 H 22.694226"
           id="path4100"
           inkscape:connector-curvature="0"
           sodipodi:nodetypes="cc" /><path
           style="fill:none;fill-rule:evenodd;stroke:#d1d1d3;stroke-width:0.95249999;stroke-linecap:butt;stroke-linejoin:miter;stroke-miterlimit:4;stroke-dasharray:3.8099999, 3.8099999;stroke-dashoffset:0;stroke-opacity:1"
           d="M 65.58306,128.74443 H 22.694226"
           id="path4104"
           inkscape:connector-curvature="0"
           sodipodi:nodetypes="cc" /><circle
           r="21.262463"
           style="color:#000000;clip-rule:nonzero;display:inline;overflow:visible;visibility:visible;opacity:1;isolation:auto;mix-blend-mode:normal;color-interpolation:sRGB;color-interpolation-filters:linearRGB;solid-color:#000000;solid-opacity:1;vector-effect:none;fill:none;fill-opacity:1;fill-rule:nonzero;stroke:#d1d1d3;stroke-width:0.95249999;stroke-linecap:round;stroke-linejoin:miter;stroke-miterlimit:4;stroke-dasharray:none;stroke-dashoffset:0;stroke-opacity:1;marker:none;color-rendering:auto;image-rendering:auto;shape-rendering:auto;text-rendering:auto;enable-background:accumulate"
           id="path4108"
           cx="44.138683"
           cy="118.09493" /><path
           style="fill:none;fill-rule:evenodd;stroke:#d1d1d3;stroke-width:0.95249999;stroke-linecap:butt;stroke-linejoin:miter;stroke-miterlimit:4;stroke-dasharray:none;stroke-opacity:1"
           d="M 22.839685,96.795929 65.437683,139.39392"
           id="path4110"
           inkscape:connector-curvature="0"
           sodipodi:nodetypes="cc" /><path
           style="fill:none;fill-rule:evenodd;stroke:#d1d1d3;stroke-width:0.95249999;stroke-linecap:butt;stroke-linejoin:miter;stroke-miterlimit:4;stroke-dasharray:none;stroke-opacity:1"
           d="M 65.437683,96.795929 22.839685,139.39392"
           id="path4112"
           inkscape:connector-curvature="0"
           sodipodi:nodetypes="cc" /><path
           style="fill:none;fill-rule:evenodd;stroke:#d1d1d3;stroke-width:0.95249999;stroke-linecap:butt;stroke-linejoin:miter;stroke-miterlimit:4;stroke-dasharray:3.8099999, 3.8099999;stroke-dashoffset:0;stroke-opacity:1"
           d="M 54.788187,96.584326 V 139.47316"
           id="path4231"
           inkscape:connector-curvature="0"
           sodipodi:nodetypes="cc" /></g><g
         id="g4413"
         transform="matrix(2.8346458,0,0,-2.8346458,-200.04866,505.4879)"><g
           transform="translate(105.83334)"
           id="g4321"><rect
             y="96.795929"
             x="22.839685"
             height="42.598"
             width="42.598"
             id="rect4301"
             style="color:#000000;clip-rule:nonzero;display:inline;overflow:visible;visibility:visible;opacity:1;isolation:auto;mix-blend-mode:normal;color-interpolation:sRGB;color-interpolation-filters:linearRGB;solid-color:#000000;solid-opacity:1;vector-effect:none;fill:none;fill-opacity:1;fill-rule:nonzero;stroke:#d1d1d3;stroke-width:0.95249999;stroke-linecap:round;stroke-linejoin:miter;stroke-miterlimit:4;stroke-dasharray:none;stroke-dashoffset:0;stroke-opacity:1;marker:none;color-rendering:auto;image-rendering:auto;shape-rendering:auto;text-rendering:auto;enable-background:accumulate" /><path
             sodipodi:nodetypes="cc"
             inkscape:connector-curvature="0"
             id="path4303"
             d="M 44.138683,96.584326 V 139.47316"
             style="fill:none;fill-rule:evenodd;stroke:#d1d1d3;stroke-width:0.95249999;stroke-linecap:butt;stroke-linejoin:miter;stroke-miterlimit:4;stroke-dasharray:none;stroke-opacity:1" /><path
             style="fill:none;fill-rule:evenodd;stroke:#d1d1d3;stroke-width:0.95249999;stroke-linecap:butt;stroke-linejoin:miter;stroke-miterlimit:4;stroke-dasharray:3.8099999, 3.8099999;stroke-dashoffset:0;stroke-opacity:1"
             d="M 33.489185,96.584326 V 139.47316"
             id="path4305"
             inkscape:connector-curvature="0"
             sodipodi:nodetypes="cc" /><path
             style="fill:none;fill-rule:evenodd;stroke:#d1d1d3;stroke-width:0.95249999;stroke-linecap:butt;stroke-linejoin:miter;stroke-miterlimit:4;stroke-dasharray:none;stroke-opacity:1"
             d="M 65.58306,118.09493 H 22.694226"
             id="path4307"
             inkscape:connector-curvature="0"
             sodipodi:nodetypes="cc" /><path
             sodipodi:nodetypes="cc"
             inkscape:connector-curvature="0"
             id="path4309"
             d="M 65.58306,107.44542 H 22.694226"
             style="fill:none;fill-rule:evenodd;stroke:#d1d1d3;stroke-width:0.95249999;stroke-linecap:butt;stroke-linejoin:miter;stroke-miterlimit:4;stroke-dasharray:3.8099999, 3.8099999;stroke-dashoffset:0;stroke-opacity:1" /><path
             sodipodi:nodetypes="cc"
             inkscape:connector-curvature="0"
             id="path4311"
             d="M 65.58306,128.74443 H 22.694226"
             style="fill:none;fill-rule:evenodd;stroke:#d1d1d3;stroke-width:0.95249999;stroke-linecap:butt;stroke-linejoin:miter;stroke-miterlimit:4;stroke-dasharray:3.8099999, 3.8099999;stroke-dashoffset:0;stroke-opacity:1" /><circle
             cy="118.09493"
             cx="44.138683"
             id="circle4313"
             style="color:#000000;clip-rule:nonzero;display:inline;overflow:visible;visibility:visible;opacity:1;isolation:auto;mix-blend-mode:normal;color-interpolation:sRGB;color-interpolation-filters:linearRGB;solid-color:#000000;solid-opacity:1;vector-effect:none;fill:none;fill-opacity:1;fill-rule:nonzero;stroke:#d1d1d3;stroke-width:0.95249999;stroke-linecap:round;stroke-linejoin:miter;stroke-miterlimit:4;stroke-dasharray:none;stroke-dashoffset:0;stroke-opacity:1;marker:none;color-rendering:auto;image-rendering:auto;shape-rendering:auto;text-rendering:auto;enable-background:accumulate"
             r="21.262463" /><path
             sodipodi:nodetypes="cc"
             inkscape:connector-curvature="0"
             id="path4315"
             d="M 22.839685,96.795929 65.437683,139.39392"
             style="fill:none;fill-rule:evenodd;stroke:#d1d1d3;stroke-width:0.95249999;stroke-linecap:butt;stroke-linejoin:miter;stroke-miterlimit:4;stroke-dasharray:none;stroke-opacity:1" /><path
             sodipodi:nodetypes="cc"
             inkscape:connector-curvature="0"
             id="path4317"
             d="M 65.437683,96.795929 22.839685,139.39392"
             style="fill:none;fill-rule:evenodd;stroke:#d1d1d3;stroke-width:0.95249999;stroke-linecap:butt;stroke-linejoin:miter;stroke-miterlimit:4;stroke-dasharray:none;stroke-opacity:1" /><path
             sodipodi:nodetypes="cc"
             inkscape:connector-curvature="0"
             id="path4319"
             d="M 54.788187,96.584326 V 139.47316"
             style="fill:none;fill-rule:evenodd;stroke:#d1d1d3;stroke-width:0.95249999;stroke-linecap:butt;stroke-linejoin:miter;stroke-miterlimit:4;stroke-dasharray:3.8099999, 3.8099999;stroke-dashoffset:0;stroke-opacity:1" /></g><g
           id="g4393"><circle
             style="color:#000000;clip-rule:nonzero;display:inline;overflow:visible;visibility:visible;opacity:1;isolation:auto;mix-blend-mode:normal;color-interpolation:sRGB;color-interpolation-filters:linearRGB;solid-color:#000000;solid-opacity:1;vector-effect:none;fill:none;fill-opacity:1;fill-rule:nonzero;stroke:#d1d1d3;stroke-width:0.90322655;stroke-linecap:round;stroke-linejoin:miter;stroke-miterlimit:4;stroke-dasharray:none;stroke-dashoffset:0;stroke-opacity:1;marker:none;color-rendering:auto;image-rendering:auto;shape-rendering:auto;text-rendering:auto;enable-background:accumulate"
             id="circle4299-5"
             cx="162.25264"
             cy="135.50504"
             r="3.3843646" /><circle
             r="2.4021492"
             cy="136.48726"
             cx="135.26514"
             id="circle4362"
             style="color:#000000;clip-rule:nonzero;display:inline;overflow:visible;visibility:visible;opacity:1;isolation:auto;mix-blend-mode:normal;color-interpolation:sRGB;color-interpolation-filters:linearRGB;solid-color:#000000;solid-opacity:1;vector-effect:none;fill:none;fill-opacity:1;fill-rule:nonzero;stroke:#d1d1d3;stroke-width:0.90322655;stroke-linecap:round;stroke-linejoin:miter;stroke-miterlimit:4;stroke-dasharray:none;stroke-dashoffset:0;stroke-opacity:1;marker:none;color-rendering:auto;image-rendering:auto;shape-rendering:auto;text-rendering:auto;enable-background:accumulate" /><path
             transform="rotate(90)"
             d="m 139.08784,-175.61786 a 5.5358844,5.5358844 0 0 1 -2.76794,4.79422 5.5358844,5.5358844 0 0 1 -5.53589,0 5.5358844,5.5358844 0 0 1 -2.76794,-4.79422"
             sodipodi:open="true"
             sodipodi:end="3.1415927"
             sodipodi:start="0"
             sodipodi:ry="5.5358844"
             sodipodi:rx="5.5358844"
             sodipodi:cy="-175.61786"
             sodipodi:cx="133.55196"
             sodipodi:type="arc"
             style="color:#000000;clip-rule:nonzero;display:inline;overflow:visible;visibility:visible;opacity:1;isolation:auto;mix-blend-mode:normal;color-interpolation:sRGB;color-interpolation-filters:linearRGB;solid-color:#000000;solid-opacity:1;vector-effect:none;fill:none;fill-opacity:1;fill-rule:nonzero;stroke:#d1d1d3;stroke-width:0.90322655;stroke-linecap:butt;stroke-linejoin:miter;stroke-miterlimit:4;stroke-dasharray:none;stroke-dashoffset:0;stroke-opacity:1;marker:none;color-rendering:auto;image-rendering:auto;shape-rendering:auto;text-rendering:auto;enable-background:accumulate"
             id="circle4299-5-3" /><path
             id="path4379"
             style="color:#000000;clip-rule:nonzero;display:inline;overflow:visible;visibility:visible;opacity:1;isolation:auto;mix-blend-mode:normal;color-interpolation:sRGB;color-interpolation-filters:linearRGB;solid-color:#000000;solid-opacity:1;vector-effect:none;fill:none;fill-opacity:1;fill-rule:nonzero;stroke:#d1d1d3;stroke-width:0.90322655;stroke-linecap:butt;stroke-linejoin:miter;stroke-miterlimit:4;stroke-dasharray:none;stroke-dashoffset:0;stroke-opacity:1;marker:none;color-rendering:auto;image-rendering:auto;shape-rendering:auto;text-rendering:auto;enable-background:accumulate"
             sodipodi:type="arc"
             sodipodi:cx="102.53867"
             sodipodi:cy="-174.55719"
             sodipodi:rx="5.5358844"
             sodipodi:ry="5.5358844"
             sodipodi:start="0"
             sodipodi:end="3.1415927"
             sodipodi:open="true"
             d="m 108.07456,-174.55719 a 5.5358844,5.5358844 0 0 1 -2.76794,4.79422 5.5358844,5.5358844 0 0 1 -5.535889,0 5.5358844,5.5358844 0 0 1 -2.767942,-4.79422"
             transform="rotate(90)" /><path
             transform="matrix(0,1,1,0,0,0)"
             d="m 107.97534,126.25679 a 5.5358844,5.5358844 0 0 1 -2.76794,4.79422 5.5358844,5.5358844 0 0 1 -5.535889,0 5.5358844,5.5358844 0 0 1 -2.767942,-4.79422"
             sodipodi:open="true"
             sodipodi:end="3.1415927"
             sodipodi:start="0"
             sodipodi:ry="5.5358844"
             sodipodi:rx="5.5358844"
             sodipodi:cy="126.25679"
             sodipodi:cx="102.43945"
             sodipodi:type="arc"
             style="color:#000000;clip-rule:nonzero;display:inline;overflow:visible;visibility:visible;opacity:1;isolation:auto;mix-blend-mode:normal;color-interpolation:sRGB;color-interpolation-filters:linearRGB;solid-color:#000000;solid-opacity:1;vector-effect:none;fill:none;fill-opacity:1;fill-rule:nonzero;stroke:#d1d1d3;stroke-width:0.90322655;stroke-linecap:butt;stroke-linejoin:miter;stroke-miterlimit:4;stroke-dasharray:none;stroke-dashoffset:0;stroke-opacity:1;marker:none;color-rendering:auto;image-rendering:auto;shape-rendering:auto;text-rendering:auto;enable-background:accumulate"
             id="path4381" /><path
             sodipodi:open="true"
             d="m 127.73392,134.08511 a 2.4021492,2.4021492 0 0 1 2.40215,2.40215 2.4021492,2.4021492 0 0 1 -2.40215,2.40215"
             sodipodi:end="1.5707963"
             sodipodi:start="4.712389"
             sodipodi:ry="2.4021492"
             sodipodi:rx="2.4021492"
             sodipodi:cy="136.48726"
             sodipodi:cx="127.73392"
             sodipodi:type="arc"
             style="color:#000000;clip-rule:nonzero;display:inline;overflow:visible;visibility:visible;opacity:1;isolation:auto;mix-blend-mode:normal;color-interpolation:sRGB;color-interpolation-filters:linearRGB;solid-color:#000000;solid-opacity:1;vector-effect:none;fill:none;fill-opacity:1;fill-rule:nonzero;stroke:#d1d1d3;stroke-width:0.90322655;stroke-linecap:butt;stroke-linejoin:miter;stroke-miterlimit:4;stroke-dasharray:none;stroke-dashoffset:0;stroke-opacity:1;marker:none;color-rendering:auto;image-rendering:auto;shape-rendering:auto;text-rendering:auto;enable-background:accumulate"
             id="circle4385" /></g></g><g
         id="g4345"
         transform="matrix(2.8346458,0,0,-2.8346458,-200.04866,505.4879)"><g
           id="g4291"
           transform="translate(52.916669)"><rect
             style="color:#000000;clip-rule:nonzero;display:inline;overflow:visible;visibility:visible;opacity:1;isolation:auto;mix-blend-mode:normal;color-interpolation:sRGB;color-interpolation-filters:linearRGB;solid-color:#000000;solid-opacity:1;vector-effect:none;fill:none;fill-opacity:1;fill-rule:nonzero;stroke:#d1d1d3;stroke-width:0.95249999;stroke-linecap:round;stroke-linejoin:miter;stroke-miterlimit:4;stroke-dasharray:none;stroke-dashoffset:0;stroke-opacity:1;marker:none;color-rendering:auto;image-rendering:auto;shape-rendering:auto;text-rendering:auto;enable-background:accumulate"
             id="rect4271"
             width="42.598"
             height="42.598"
             x="22.839685"
             y="96.795929" /><path
             style="fill:none;fill-rule:evenodd;stroke:#d1d1d3;stroke-width:0.95249999;stroke-linecap:butt;stroke-linejoin:miter;stroke-miterlimit:4;stroke-dasharray:none;stroke-opacity:1"
             d="M 44.138683,96.584326 V 139.47316"
             id="path4273"
             inkscape:connector-curvature="0"
             sodipodi:nodetypes="cc" /><path
             sodipodi:nodetypes="cc"
             inkscape:connector-curvature="0"
             id="path4275"
             d="M 33.489185,96.584326 V 139.47316"
             style="fill:none;fill-rule:evenodd;stroke:#d1d1d3;stroke-width:0.95249999;stroke-linecap:butt;stroke-linejoin:miter;stroke-miterlimit:4;stroke-dasharray:3.8099999, 3.8099999;stroke-dashoffset:0;stroke-opacity:1" /><path
             sodipodi:nodetypes="cc"
             inkscape:connector-curvature="0"
             id="path4277"
             d="M 65.58306,118.09493 H 22.694226"
             style="fill:none;fill-rule:evenodd;stroke:#d1d1d3;stroke-width:0.95249999;stroke-linecap:butt;stroke-linejoin:miter;stroke-miterlimit:4;stroke-dasharray:none;stroke-opacity:1" /><path
             style="fill:none;fill-rule:evenodd;stroke:#d1d1d3;stroke-width:0.95249999;stroke-linecap:butt;stroke-linejoin:miter;stroke-miterlimit:4;stroke-dasharray:3.8099999, 3.8099999;stroke-dashoffset:0;stroke-opacity:1"
             d="M 65.58306,107.44542 H 22.694226"
             id="path4279"
             inkscape:connector-curvature="0"
             sodipodi:nodetypes="cc" /><path
             style="fill:none;fill-rule:evenodd;stroke:#d1d1d3;stroke-width:0.95249999;stroke-linecap:butt;stroke-linejoin:miter;stroke-miterlimit:4;stroke-dasharray:3.8099999, 3.8099999;stroke-dashoffset:0;stroke-opacity:1"
             d="M 65.58306,128.74443 H 22.694226"
             id="path4281"
             inkscape:connector-curvature="0"
             sodipodi:nodetypes="cc" /><circle
             r="21.262463"
             style="color:#000000;clip-rule:nonzero;display:inline;overflow:visible;visibility:visible;opacity:1;isolation:auto;mix-blend-mode:normal;color-interpolation:sRGB;color-interpolation-filters:linearRGB;solid-color:#000000;solid-opacity:1;vector-effect:none;fill:none;fill-opacity:1;fill-rule:nonzero;stroke:#d1d1d3;stroke-width:0.95249999;stroke-linecap:round;stroke-linejoin:miter;stroke-miterlimit:4;stroke-dasharray:none;stroke-dashoffset:0;stroke-opacity:1;marker:none;color-rendering:auto;image-rendering:auto;shape-rendering:auto;text-rendering:auto;enable-background:accumulate"
             id="circle4283"
             cx="44.138683"
             cy="118.09493" /><path
             style="fill:none;fill-rule:evenodd;stroke:#d1d1d3;stroke-width:0.95249999;stroke-linecap:butt;stroke-linejoin:miter;stroke-miterlimit:4;stroke-dasharray:none;stroke-opacity:1"
             d="M 22.839685,96.795929 65.437683,139.39392"
             id="path4285"
             inkscape:connector-curvature="0"
             sodipodi:nodetypes="cc" /><path
             style="fill:none;fill-rule:evenodd;stroke:#d1d1d3;stroke-width:0.95249999;stroke-linecap:butt;stroke-linejoin:miter;stroke-miterlimit:4;stroke-dasharray:none;stroke-opacity:1"
             d="M 65.437683,96.795929 22.839685,139.39392"
             id="path4287"
             inkscape:connector-curvature="0"
             sodipodi:nodetypes="cc" /><path
             style="fill:none;fill-rule:evenodd;stroke:#d1d1d3;stroke-width:0.95249999;stroke-linecap:butt;stroke-linejoin:miter;stroke-miterlimit:4;stroke-dasharray:3.8099999, 3.8099999;stroke-dashoffset:0;stroke-opacity:1"
             d="M 54.788187,96.584326 V 139.47316"
             id="path4289"
             inkscape:connector-curvature="0"
             sodipodi:nodetypes="cc" /></g><g
           id="g4328"><circle
             style="color:#000000;clip-rule:nonzero;display:inline;overflow:visible;visibility:visible;opacity:1;isolation:auto;mix-blend-mode:normal;color-interpolation:sRGB;color-interpolation-filters:linearRGB;solid-color:#000000;solid-opacity:1;vector-effect:none;fill:none;fill-opacity:1;fill-rule:nonzero;stroke:#d1d1d3;stroke-width:0.90322655;stroke-linecap:round;stroke-linejoin:miter;stroke-miterlimit:4;stroke-dasharray:none;stroke-dashoffset:0;stroke-opacity:1;marker:none;color-rendering:auto;image-rendering:auto;shape-rendering:auto;text-rendering:auto;enable-background:accumulate"
             id="circle4295"
             cx="79.152618"
             cy="100.1922"
             r="3.3843644" /><circle
             r="3.3843644"
             cy="136.03419"
             cx="79.152618"
             id="circle4297"
             style="color:#000000;clip-rule:nonzero;display:inline;overflow:visible;visibility:visible;opacity:1;isolation:auto;mix-blend-mode:normal;color-interpolation:sRGB;color-interpolation-filters:linearRGB;solid-color:#000000;solid-opacity:1;vector-effect:none;fill:none;fill-opacity:1;fill-rule:nonzero;stroke:#d1d1d3;stroke-width:0.90322655;stroke-linecap:round;stroke-linejoin:miter;stroke-miterlimit:4;stroke-dasharray:none;stroke-dashoffset:0;stroke-opacity:1;marker:none;color-rendering:auto;image-rendering:auto;shape-rendering:auto;text-rendering:auto;enable-background:accumulate" /><circle
             style="color:#000000;clip-rule:nonzero;display:inline;overflow:visible;visibility:visible;opacity:1;isolation:auto;mix-blend-mode:normal;color-interpolation:sRGB;color-interpolation-filters:linearRGB;solid-color:#000000;solid-opacity:1;vector-effect:none;fill:none;fill-opacity:1;fill-rule:nonzero;stroke:#d1d1d3;stroke-width:0.90322655;stroke-linecap:round;stroke-linejoin:miter;stroke-miterlimit:4;stroke-dasharray:none;stroke-dashoffset:0;stroke-opacity:1;marker:none;color-rendering:auto;image-rendering:auto;shape-rendering:auto;text-rendering:auto;enable-background:accumulate"
             id="circle4299"
             cx="90.265114"
             cy="136.03419"
             r="3.3843644" /></g></g><g
         style="stroke:none"
         id="g4142"
         transform="matrix(2.8346458,0,0,-2.8346458,-200.04866,505.4879)"><path
           style="color:#000000;clip-rule:nonzero;display:inline;overflow:visible;visibility:visible;opacity:1;isolation:auto;mix-blend-mode:normal;color-interpolation:sRGB;color-interpolation-filters:linearRGB;solid-color:#000000;solid-opacity:1;vector-effect:none;fill:#f17a3c;fill-opacity:1;fill-rule:nonzero;stroke:none;stroke-width:4.58437443;stroke-linecap:round;stroke-linejoin:round;stroke-miterlimit:4;stroke-dasharray:none;stroke-dashoffset:0;stroke-opacity:1;marker:none;color-rendering:auto;image-rendering:auto;shape-rendering:auto;text-rendering:auto;enable-background:accumulate"
           d="m 183.67652,96.302402 v 17.764438 h 10.14649 c 0,3.88005 -3.11504,4.89327 -5.21829,6.18892 l 3.95402,4.75628 c 4.94842,-1.68808 8.88222,-5.32625 8.88222,-10.9452 V 96.302402 Z"
           id="rect4067"
           inkscape:connector-curvature="0"
           sodipodi:nodetypes="cccccscc" /><text
           xml:space="preserve"
           style="font-style:normal;font-variant:normal;font-weight:normal;font-stretch:normal;font-size:10.54817104px;line-height:2.52722907px;font-family:Menlo;-inkscape-font-specification:Menlo;text-align:center;letter-spacing:0px;word-spacing:0px;text-anchor:middle;fill:#9b2c3e;fill-opacity:1;stroke:none;stroke-width:0.10108916px;stroke-linecap:butt;stroke-linejoin:miter;stroke-opacity:1"
           x="73.362526"
           y="154.48062"
           id="text4009"><tspan
             sodipodi:role="line"
             id="tspan4007"
             x="73.313576"
             y="154.48062"
             style="font-style:normal;font-variant:normal;font-weight:500;font-stretch:normal;font-size:10.54817104px;line-height:1.73302078px;font-family:DINPro;-inkscape-font-specification:'DINPro Medium';letter-spacing:-0.09789583px;fill:#9b2c3e;fill-opacity:1;stroke:none;stroke-width:0.10108916px">CENTRE DE RECERCA</tspan></text>
<text
           id="text4013"
           y="154.48062"
           x="160.04459"
           style="font-style:normal;font-variant:normal;font-weight:900;font-stretch:normal;font-size:10.54817104px;line-height:2.57272434px;font-family:DINPro;-inkscape-font-specification:'DINPro Heavy';text-align:center;letter-spacing:0px;word-spacing:0px;text-anchor:middle;fill:#1d1d1d;fill-opacity:1;stroke:none;stroke-width:0.10290897px;stroke-linecap:butt;stroke-linejoin:miter;stroke-opacity:1"
           xml:space="preserve"><tspan
             style="font-style:normal;font-variant:normal;font-weight:900;font-stretch:normal;font-family:DINPro;-inkscape-font-specification:'DINPro Heavy';fill:#1d1d1d;fill-opacity:1;stroke:none;stroke-width:0.10290897px"
             y="154.48062"
             x="160.04459"
             id="tspan4011"
             sodipodi:role="line">MATEMÀTICA</tspan></text>
<path
           sodipodi:nodetypes="cscsscsssscscsccscccccscccsscscccccccsscscsssssssssscscc"
           inkscape:connector-curvature="0"
           id="path4048"
           d="m 81.954685,139.37961 c -1.564349,-0.049 -2.844271,-0.20262 -2.844271,-0.34126 0,-0.13865 0.407459,-0.42233 0.905463,-0.63041 0.498004,-0.20808 1.123082,-0.7104 1.389062,-1.11626 0.455309,-0.69477 0.486858,-1.81559 0.539266,-19.15768 0.06249,-20.675997 0.145063,-19.747027 -1.841603,-20.717767 -0.545703,-0.26665 -0.992188,-0.59407 -0.992188,-0.72761 0,-0.41815 16.774373,-0.29534 18.817698,0.13777 4.609868,0.97713 7.528588,3.752717 8.563888,8.143917 1.26947,5.38448 -1.02923,10.87646 -5.63807,13.47029 -0.82659,0.4652 -1.548744,0.88215 -1.604774,0.92653 -0.2047,0.16218 3.806504,4.66777 8.640174,9.70507 4.74014,4.93983 7.18276,7.19556 9.92138,9.16229 0.68848,0.49443 1.25178,1.00993 1.25178,1.14554 0,0.33297 -3.45293,-2.6e-4 -5.29167,-0.51082 -1.70411,-0.47309 -4.735,-1.94632 -6.16015,-2.99428 -0.90943,-0.66873 -5.50443,-5.4496 -12.889838,-13.41123 l -2.778125,-2.99487 -2.182813,-0.002 -2.182813,-0.002 0.0011,8.40052 c 0.0011,7.95906 0.02905,8.44655 0.534958,9.27634 0.293685,0.4817 0.956326,1.05229 1.472536,1.26797 2.272938,0.9497 0.184206,1.21526 -7.63088,0.9702 z m 11.955818,-23.08689 c 1.95593,-0.37093 3.14185,-0.99719 4.556536,-2.40619 2.048381,-2.04016 2.471491,-3.10086 2.471491,-6.19591 0,-2.26663 -0.0894,-2.81647 -0.62384,-3.83646 -0.851274,-1.62473 -2.033928,-2.82369 -3.609483,-3.65924 -1.254959,-0.665527 -1.52,-0.701697 -5.159375,-0.703977 l -3.836459,-0.002 -0.06343,8.202087 c -0.03488,4.51114 -0.0089,8.35091 0.05784,8.53281 0.150082,0.4093 4.176805,0.45425 6.206718,0.0693 z m -54.826372,22.61723 c -8.569904,-2.16717 -14.665338,-8.3505 -16.214755,-16.44857 -1.440154,-7.527 0.775692,-14.83763 6.005348,-19.81311 4.900939,-4.662747 8.545334,-6.190377 14.781522,-6.195987 3.715761,-0.003 6.353109,0.57393 9.836026,2.15296 1.805171,0.8184 2.908573,1.14832 4.112533,1.22963 1.232485,0.0832 1.676487,0.219737 1.769174,0.543857 0.217709,0.76132 1.215601,5.81377 1.215601,6.15474 0,0.18073 -1.115425,-0.76527 -2.478725,-2.10221 -2.839204,-2.78431 -4.524364,-3.70402 -8.122722,-4.433137 -2.732117,-0.55359 -6.456718,-0.38934 -8.97772,0.395917 -5.926793,1.84612 -11.091169,7.57698 -12.60046,13.98261 -0.658994,2.79685 -0.383909,6.99399 0.64032,9.76976 3.296245,8.93318 13.428208,14.24536 22.411182,11.75016 4.579237,-1.27198 7.017197,-2.92546 9.501222,-6.44397 2.00255,-2.83652 2.108132,-2.62903 1.378014,2.70797 l -0.560486,4.09704 -2.795399,0.7115 c -7.045781,1.79333 -9.18031,2.1371 -13.873351,2.23437 -3.332839,0.0691 -4.894074,-0.007 -6.027324,-0.29353 z"
           style="fill:#9b2c3c;fill-opacity:1;stroke:none;stroke-width:0.26458335" /><path
           sodipodi:nodetypes="ccssccscsscscccsccccssscscscscscsccccc"
           inkscape:connector-curvature="0"
           id="path4046"
           d="m 127.94501,139.18915 c 0,0 0.20252,-0.49233 0.62672,-0.66804 1.7104,-0.70847 1.6555,-0.40891 2.02585,-11.05418 0.18603,-5.34718 0.42359,-13.42675 0.52791,-17.9546 0.18945,-8.22279 0.18896,-8.23393 -0.41553,-9.48263 -0.65277,-1.348467 -2.18778,-2.646197 -3.46071,-2.925777 -1.8107,-0.3977 -0.54492,-0.529685 3.19766,-0.591945 h 3.9761 l 1.42132,2.910415 c 5.10168,10.446637 15.03428,30.493227 15.28269,30.493227 0.16381,0 1.21367,-2.02406 2.333,-4.49792 1.11933,-2.47385 3.85671,-8.48651 6.08306,-13.36145 2.22636,-4.87495 4.72748,-10.35183 5.55806,-12.170837 l 1.51014,-3.373435 h 4.00686 c 3.76203,-0.0686 5.03129,0.153565 3.27925,0.584765 -2.13483,0.52541 -3.9791,2.42521 -4.42273,4.555877 -0.16511,0.79298 0.0568,9.36134 0.66311,25.60691 0.24896,6.67049 0.30761,7.22383 0.9037,8.52587 0.67419,1.47261 1.59911,2.23088 3.38509,2.77518 0.5457,0.16631 0.99218,0.50609 0.99218,0.62857 0,0.12249 -2.79797,0 -6.21771,0 -3.51443,0 -6.2177,0.13478 -6.2177,0 0,-0.13115 0.42255,-0.607 0.93901,-0.91171 1.58598,-0.93575 1.69417,-1.53371 1.39329,-7.70032 -0.71682,-14.69116 -1.15606,-21.26034 -1.42757,-21.35051 -0.15725,-0.0522 -1.9963,3.68848 -4.08678,8.31267 -2.09049,4.6242 -5.13549,11.363 -6.76666,14.97512 -1.63118,3.61211 -3.03164,6.59425 -3.11214,6.67475 -0.0805,0.0805 -0.85021,-1.28797 -1.71048,-3.08882 -0.86026,-1.80084 -3.8564,-7.97722 -6.65807,-13.7253 -2.80167,-5.74807 -5.55012,-11.4333 -6.10766,-12.63385 -0.55755,-1.20055 -1.13823,-2.18281 -1.29042,-2.18281 -0.16286,0 -0.27732,0.68031 -0.27822,1.65364 -7.9e-4,0.90951 -0.18246,7.53376 -0.40359,14.72056 -0.44092,14.32954 -0.47043,13.92988 1.08057,14.63656 0.35611,0.16226 0.64746,0.49786 0.64746,0.62002 -0.73587,0 -7.25706,0 -7.25706,0 z"
           style="fill:#1e1d1d;fill-opacity:1;stroke:none;stroke-width:0.26458335" /><path
           style="fill:#ffffff;stroke:none;stroke-width:0.07336942"
           d="m 187.89829,111.04511 v -5.79601 -5.612772 h 3.42118 2.76558 c 0.99843,0.08827 2.03653,0.755342 2.49449,1.510292 0.47778,0.82252 0.55405,2.66099 0.14434,3.47884 -0.19948,0.39818 -0.58783,0.81393 -0.92966,0.99527 -0.18494,0.0981 -0.33625,0.195 -0.33625,0.21532 0,0.0203 0.15364,0.11844 0.34141,0.21805 0.352,0.18673 0.68892,0.58019 0.88135,1.02923 0.0727,0.16981 0.13361,0.70791 0.17963,1.58861 0.0614,1.17638 0.11602,1.54871 0.32363,2.20825 l 0.0519,0.16492 h -1.68809 -1.68808 l -0.11232,-0.28046 c -0.15707,-0.39257 -0.19234,-0.63816 -0.26169,-1.82206 -0.0682,-1.16492 -0.15721,-1.41472 -0.59499,-1.6704 -0.20658,-0.12065 -0.27043,-0.14701 -0.90764,-0.14933 l -0.7668,-0.003 v 1.96263 l 4e-4,1.96262 h -1.66137 c -1.22461,0 -1.65702,0 -1.65702,0 z m 5.45971,-6.55378 c 0.48294,-0.31643 0.65045,-1.13577 0.33725,-1.6495 -0.23506,-0.38554 -0.40122,-0.46144 -1.51636,-0.43791 l -0.96261,0.0205 v 1.05824 1.12238 c 0,0 0.57182,0.0535 1.09964,0.0406 0.76873,-0.0189 0.88243,-0.0495 1.04214,-0.15423 z"
           id="path4084"
           inkscape:connector-curvature="0"
           sodipodi:nodetypes="ccccccccsccccccccccccccsccccccccccc" /></g></g></g></svg>